<svg xmlns="http://www.w3.org/2000/svg" width="36.059" height="36" viewBox="0 0 36.059 36"><defs><style>.a{fill:rgba(74,21,75,0.8);}</style></defs><g transform="translate(-545 -2393)"><path class="a" d="M26.607,36H3.193A3.2,3.2,0,0,1,0,32.807V30.04a8.92,8.92,0,0,1,8.527-8.9l3.18,12.731,2.128-9.047L11.707,21.1h6.386l-2.129,3.725,2.129,9.047L21.272,21.14a9.016,9.016,0,0,1,2.682.541,8.181,8.181,0,0,0-2.586,6,8.259,8.259,0,0,0,6.483,8.065A3.166,3.166,0,0,1,26.607,36ZM2.444,23.055a.972.972,0,0,1-.53-1.786l2.444-1.587a.971.971,0,1,1,1.058,1.629L2.972,22.9A.969.969,0,0,1,2.444,23.055ZM24.535,21.18h0a.971.971,0,0,1,1.219-1.5l.625.406a8.252,8.252,0,0,0-1.843,1.092ZM14.9,18.971A8.519,8.519,0,0,1,6.539,8.84c-.028-.045-.045-.075-.059-.1A7.28,7.28,0,0,0,9.82,10.8a16.482,16.482,0,0,0,5.234.8c3.51,0,6.672-.963,8.252-2.512a8.771,8.771,0,0,1,.108,1.365A8.524,8.524,0,0,1,14.9,18.971Zm.154-8.177c-3.8,0-7.265-1.173-8.621-2.92a2.306,2.306,0,0,1,.584-.752c-.416-.083-.789-.173-1.109-.265L5.9,6.826,5.894,6.8l-.01.019,0,.007a.112.112,0,0,1-.009.018C4.553,6.468,3.885,6,3.885,5.464,3.885,2.451,8.678,0,14.569,0S25.254,2.451,25.254,5.464c0,.6-.858,1.12-2.482,1.515a2.114,2.114,0,0,1,.815,1.007C22.155,9.692,18.806,10.795,15.054,10.795Zm-.447-4a.835.835,0,0,0-.738.444,23,23,0,0,0-3.054.159c-.091.02-.132.042-.131.07a13.461,13.461,0,0,0,3.277.687.832.832,0,0,0,1.246.053c1.1-.153,3.642-.531,3.65-.74,0-.028-.041-.05-.13-.07a25.284,25.284,0,0,0-3.384-.162A.832.832,0,0,0,14.607,6.8Z" transform="translate(545 2393)"/><path class="a" d="M6.5,13A6.5,6.5,0,1,1,13,6.5,6.507,6.507,0,0,1,6.5,13ZM3.239,7.567a.291.291,0,0,0-.205.087l-.218.217a.073.073,0,0,0-.021.063.073.073,0,0,0,.04.054l1.145.63a.3.3,0,0,1,.154.154l.631,1.145a.073.073,0,0,0,.118.02L5.1,9.721a.3.3,0,0,0,.084-.242L5.079,8.4a.146.146,0,0,1,.045-.126L6.732,6.738a.039.039,0,0,1,.025-.009.035.035,0,0,1,.032.021l1.2,2.494a.157.157,0,0,0,.132.1A.11.11,0,0,0,8.2,9.312l.307-.307a.29.29,0,0,0,.079-.27L7.962,5.6a.037.037,0,0,1,.01-.034l.861-.817c.045-.041.192-.185.236-.229.541-.541.761-1.108.521-1.348a.361.361,0,0,0-.265-.1,1.8,1.8,0,0,0-1.084.617l-.021.022c-.056.057-.174.177-.207.215L7.2,4.785A.037.037,0,0,1,7.17,4.8H7.162L4.022,4.17a.282.282,0,0,0-.062-.007.3.3,0,0,0-.208.086l-.307.307a.106.106,0,0,0-.033.1.168.168,0,0,0,.1.114l2.493,1.2a.036.036,0,0,1,.012.058L4.46,7.627a.145.145,0,0,1-.107.046H4.334l-1.059-.1Z" transform="translate(568.059 2414)"/></g></svg>