<svg xmlns="http://www.w3.org/2000/svg" width="31.33" height="37.5" viewBox="0 0 31.33 37.5"><defs><style>.a,.b{fill:rgba(74,21,75,0.8);}.b{stroke:rgba(0,0,0,0);}</style></defs><g transform="translate(-128 -2393.5)"><path class="a" d="M22.365,20.293,19.022,34.125,16.784,24.3l2.238-4.047H12.308L14.546,24.3l-2.238,9.828L8.965,20.293A9.559,9.559,0,0,0,0,29.962v3.006a3.415,3.415,0,0,0,3.357,3.469H27.973a3.415,3.415,0,0,0,3.357-3.469V29.962a9.559,9.559,0,0,0-8.965-9.669Z" transform="translate(128 2394.563)"/><path class="b" d="M172.976,2h-.293l.03.027h.243l.03.027h.243l.03.027.335.027.456.081.76.217,1.125.488a5.181,5.181,0,0,1,1.232.908l.3.393s.889.412,1.049.515l.563.474a3.009,3.009,0,0,1,.487.732l.182.488.091.352.091.759.03.027.03.868-.03.027v.542l-.03.027-.061.759-.274,1.355.3.217.152.244.061.244v.6l-.03.027v.217l-.091.461-.4,1.22-.243.515-.4.583-.289.19-.3.027-.091-.027-.106.122-.182.759-.243.678-.4.813a6.155,6.155,0,0,1-1.536,1.749,4.254,4.254,0,0,1-.852.515l-.578.244-.669.217-.943.19-1.064.027-.03-.027h-.274l-.03-.027-.365-.027-.76-.163-.821-.271A5.874,5.874,0,0,1,167.5,19.2a6.262,6.262,0,0,1-1.277-1.789l-.335-.895-.274-1.084-.106-.122a.59.59,0,0,1-.38-.258,2.54,2.54,0,0,1-.487-.732l-.4-1.084L164,12.125v-.651q.07-.033.03-.163l.122-.244.167-.149.563-.2-.213-.678-.061-1.816.03-.027V7.923l.122-.569.456-1.057.608-.976a7.581,7.581,0,0,1,.928-.962,10.063,10.063,0,0,1,2.829-1.816,6.846,6.846,0,0,1,1.217-.38l.7-.108.578-.027Z" transform="translate(-28.786 2392)"/></g></svg>