<svg xmlns="http://www.w3.org/2000/svg" width="31.5" height="35.703" viewBox="0 0 31.5 35.703"><defs><style>.a{fill:rgba(74,21,75,0.8);}</style></defs><g transform="translate(-315 -2375.297)"><path class="a" d="M41.1,25.034a7.419,7.419,0,0,0,0-2.694l1.632-.942a.458.458,0,0,0,.209-.538,9.491,9.491,0,0,0-2.1-3.63.461.461,0,0,0-.569-.089l-1.632.942A7.425,7.425,0,0,0,36.3,16.736V14.851a.46.46,0,0,0-.36-.449,9.542,9.542,0,0,0-4.187,0,.46.46,0,0,0-.36.449v1.885a7.425,7.425,0,0,0-2.334,1.347l-1.632-.942a.463.463,0,0,0-.569.089,9.491,9.491,0,0,0-2.1,3.63.466.466,0,0,0,.209.538l1.632.942a7.419,7.419,0,0,0,0,2.694l-1.632.942a.458.458,0,0,0-.209.538,9.538,9.538,0,0,0,2.1,3.63.461.461,0,0,0,.569.089l1.632-.942A7.425,7.425,0,0,0,31.4,30.637v1.885a.46.46,0,0,0,.36.449,9.542,9.542,0,0,0,4.187,0,.46.46,0,0,0,.36-.449V30.637a7.425,7.425,0,0,0,2.334-1.347l1.632.942a.463.463,0,0,0,.569-.089,9.491,9.491,0,0,0,2.1-3.63.466.466,0,0,0-.209-.538L41.1,25.034Zm-7.241,1.72a3.067,3.067,0,1,1,3.067-3.067A3.07,3.07,0,0,1,33.856,26.754Z" transform="translate(297.259 2361.127)"/><path class="a" d="M22.05,20.25H20.876a12.24,12.24,0,0,1-10.252,0H9.45A9.452,9.452,0,0,0,0,29.7v2.925A3.376,3.376,0,0,0,3.375,36h24.75A3.376,3.376,0,0,0,31.5,32.625V29.7A9.452,9.452,0,0,0,22.05,20.25Z" transform="translate(315 2375)"/></g></svg>