<svg xmlns="http://www.w3.org/2000/svg" width="40.375" height="35.999" viewBox="0 0 40.375 35.999"><defs><style>.a{fill:rgba(74,21,75,0.8);}</style></defs><g transform="translate(-793 -595)"><path class="a" d="M-4339.649,36h-25.2a3.153,3.153,0,0,1-3.15-3.149V29.7a9.316,9.316,0,0,1,1.312-4.771,9.628,9.628,0,0,1,3.427-3.379l-1.814-4.233a1.129,1.129,0,0,1,.1-1.066,1.121,1.121,0,0,1,.937-.5H-4360a8.875,8.875,0,0,1-1.25-4.5v-.022A2.2,2.2,0,0,1-4363.2,9.1a2.608,2.608,0,0,1,2.376-2.419,18.4,18.4,0,0,1,2.854-5.821A2.259,2.259,0,0,1-4356.2,0a2.23,2.23,0,0,1,1.005.238l1.941.97a2.258,2.258,0,0,0,1.005.238,2.256,2.256,0,0,0,1-.238l1.94-.97A2.23,2.23,0,0,1-4348.3,0a2.258,2.258,0,0,1,1.772.857,18.222,18.222,0,0,1,2.854,5.821,2.613,2.613,0,0,1,2.382,2.42,2.2,2.2,0,0,1-1.954,2.129v.022a8.862,8.862,0,0,1-1.252,4.5h4.114a1.126,1.126,0,0,1,.942.5A7.506,7.506,0,0,0-4345,23.5a7.509,7.509,0,0,0,7.5,7.5,7.6,7.6,0,0,0,1-.066v1.915A3.153,3.153,0,0,1-4339.649,36Zm-6.3-15.749-3.488,2.249-1.687,2.813,2.25,8.438,2.926-13.5Zm-12.6,0,2.925,13.5,2.25-8.438-1.687-2.813-3.487-2.249Z" transform="translate(5161 595)"/><path class="a" d="M15.166,13.293,12.172,10.3a.72.72,0,0,0-.51-.21h-.489a6.245,6.245,0,1,0-1.081,1.081v.489a.72.72,0,0,0,.21.51L13.3,15.163a.718.718,0,0,0,1.018,0l.85-.85a.724.724,0,0,0,0-1.021ZM6.247,10.569a4.324,4.324,0,1,1,4.324-4.324A4.321,4.321,0,0,1,6.247,10.569Zm.814-4.581L5.709,5.583A.392.392,0,0,1,5.446,5.2.378.378,0,0,1,5.8,4.8h.844a.72.72,0,0,1,.385.112.246.246,0,0,0,.3-.022l.353-.337a.241.241,0,0,0-.017-.365,1.719,1.719,0,0,0-.942-.341V3.363a.24.24,0,0,0-.24-.24h-.48a.24.24,0,0,0-.24.24v.484A1.337,1.337,0,0,0,4.485,5.2a1.359,1.359,0,0,0,.948,1.3l1.352.405a.392.392,0,0,1,.263.382.378.378,0,0,1-.354.4H5.85a.72.72,0,0,1-.385-.112.246.246,0,0,0-.3.022l-.353.337a.241.241,0,0,0,.017.365,1.719,1.719,0,0,0,.942.341v.489a.24.24,0,0,0,.24.24h.48a.24.24,0,0,0,.24-.24V8.645A1.337,1.337,0,0,0,8.009,7.291a1.359,1.359,0,0,0-.949-1.3Z" transform="translate(818 612)"/></g></svg>