<svg xmlns="http://www.w3.org/2000/svg" width="76.425" height="53.497" viewBox="0 0 76.425 53.497"><defs><style>.a{fill:#eceaf2;}</style></defs><path class="a" d="M64.2,25.488a11.477,11.477,0,0,0-10.7-15.6,11.405,11.405,0,0,0-6.365,1.935,19.108,19.108,0,0,0-35.669,9.529c0,.322.012.645.024.967A17.2,17.2,0,0,0,17.2,55.747H61.14A15.284,15.284,0,0,0,64.2,25.488ZM46.977,32.82h-7.81V46.194A1.916,1.916,0,0,1,37.257,48.1H31.525a1.916,1.916,0,0,1-1.911-1.911V32.82H21.8a1.907,1.907,0,0,1-1.349-3.26L33.042,16.974a1.917,1.917,0,0,1,2.7,0L48.327,29.56a1.91,1.91,0,0,1-1.349,3.26Z" transform="translate(0 -2.25)"/></svg>