<svg xmlns="http://www.w3.org/2000/svg" width="30.681" height="37.064" viewBox="0 0 30.681 37.064"><defs><style>.a{fill:rgba(74,21,75,0.8);}</style></defs><path class="a" d="M27.393,37.064H3.287A3.291,3.291,0,0,1,0,33.776V30.928a9.183,9.183,0,0,1,8.78-9.163l3.273,13.108,2.191-9.314-2.191-3.835h6.574l-2.191,3.835,2.191,9.314L21.9,21.765a9.183,9.183,0,0,1,8.78,9.163v2.848A3.291,3.291,0,0,1,27.393,37.064ZM15.341,19.532A8.776,8.776,0,0,1,6.732,9.1c-.022-.035-.043-.071-.062-.107a7.5,7.5,0,0,0,3.439,2.124,16.951,16.951,0,0,0,5.391.828c3.614,0,6.869-.991,8.5-2.586a8.9,8.9,0,0,1,.112,1.406A8.776,8.776,0,0,1,15.341,19.532Zm.159-8.418a16.942,16.942,0,0,1-5.425-.839A7.338,7.338,0,0,1,6.623,8.108a2.383,2.383,0,0,1,.6-.776c-.425-.085-.81-.177-1.143-.272L6.074,7.03,6.068,7a.4.4,0,0,0-.022.046C4.688,6.659,4,6.179,4,5.626,4,2.524,8.934,0,15,0S26,2.524,26,5.626c0,.615-.884,1.154-2.555,1.559a2.175,2.175,0,0,1,.839,1.037C22.811,9.979,19.363,11.114,15.5,11.114ZM15.038,7a.857.857,0,0,0-.76.458,23.6,23.6,0,0,0-3.144.163c-.092.02-.136.044-.135.072a13.935,13.935,0,0,0,3.371.707.857.857,0,0,0,1.283.055c1.128-.158,3.751-.548,3.759-.761,0-.028-.043-.052-.135-.072A26.275,26.275,0,0,0,15.8,7.455.855.855,0,0,0,15.038,7Z"/></svg>