<svg xmlns="http://www.w3.org/2000/svg" width="43" height="35.866" viewBox="0 0 43 35.866"><defs><style>.a{fill:rgba(74,21,75,0.8);}</style></defs><path class="a" d="M26.875,35.866H3.225A3.215,3.215,0,0,1,0,32.669V29.9a9,9,0,0,1,9.03-8.951h1.122a11.788,11.788,0,0,0,9.8,0H21.07a1.829,1.829,0,0,1,.276.028,2.088,2.088,0,0,0,.228.026c-.008.06-.02.12-.033.179a1.46,1.46,0,0,0-.041.3,18.246,18.246,0,0,0,1.972,8.368A17.426,17.426,0,0,0,28.165,35.6,3.323,3.323,0,0,1,26.875,35.866Zm6.444,0a2.061,2.061,0,0,1-.74-.137A13.654,13.654,0,0,1,26.5,30.763,16.1,16.1,0,0,1,23.65,21.48a1.8,1.8,0,0,1,1.189-1.658l7.74-3a2.071,2.071,0,0,1,.742-.137,2.122,2.122,0,0,1,.75.137l7.74,3A1.8,1.8,0,0,1,43,21.48a16.7,16.7,0,0,1-.91,5.537,15.163,15.163,0,0,1-2.262,4.2,14.112,14.112,0,0,1-5.757,4.513A2.137,2.137,0,0,1,33.319,35.863Zm.006-15.894V32.562a11.924,11.924,0,0,0,6.416-10.109ZM15.05,18.816A8.524,8.524,0,0,1,6.691,8.28a28.918,28.918,0,0,0,8.5,1.45,31.638,31.638,0,0,0,8.26-1.259,8.525,8.525,0,0,1-8.4,10.344ZM23.58,7.405H6.894c-.17-.214-1.641-2.13-1.233-3.756a2.59,2.59,0,0,1,1.63-1.7A22.12,22.12,0,0,1,15.415,0,6.474,6.474,0,0,1,17.44.273c.524.176,1.16.338,1.833.51,2.136.545,4.794,1.223,5.594,2.843.708,1.434-.5,2.983-1.287,3.78h0Z" transform="translate(0 0)"/></svg>