<svg xmlns="http://www.w3.org/2000/svg" width="36.3" height="37.738" viewBox="0 0 36.3 37.738"><defs><style>.a{fill:rgba(74,21,75,0.8);}</style></defs><path class="a" d="M30.594,37.738H1.8V26.6H0V19.425a1.8,1.8,0,0,1,1.077-1.644,1.235,1.235,0,0,1-.649-.327c-.3-.283.366-.507,1.012-.635a.53.53,0,0,1-.014-.126.544.544,0,0,1,.249-.458,2.573,2.573,0,0,0-.423-.056.6.6,0,0,1-.507-.956c.252-.461,1.2.564,1.455.926h.02a.543.543,0,0,1,.5.322l3.226-.322c.166,0,.3.243.3.544s-.134.543-.3.543c0,0-2.153-.046-3.321-.177a.54.54,0,0,1-.4.177H2.048a1.67,1.67,0,0,0-.2.253.6.6,0,0,1-.127.143l.081,0H7.2A1.8,1.8,0,0,1,9,19.425V26.6H7.2v5.381H21.6V24.912A12.53,12.53,0,0,1,11.1,12.555a12.611,12.611,0,0,1,21.509-8.88A12.545,12.545,0,0,1,25.2,25.02v6.959h5.4v5.758h0ZM18.3,10.565l-1.064,1.061a.748.748,0,0,0,0,1.061l4.892,4.875a.753.753,0,0,0,1.065,0l8.656-8.627a.749.749,0,0,0,0-1.06L30.784,6.815a.753.753,0,0,0-1.065,0l-7.06,7.034-3.3-3.284a.755.755,0,0,0-1.065,0ZM1.8,13.146a2.677,2.677,0,0,1,.964-2.061,7.636,7.636,0,0,0,1.75,1.5,7.614,7.614,0,0,0,1.466-1.688A2.695,2.695,0,1,1,1.8,13.146ZM4.5,12.14l-.007,0a11.208,11.208,0,0,1-1.433-1.264,2.726,2.726,0,0,1,2.625-.145A7.509,7.509,0,0,1,4.5,12.14h0Z"/></svg>